<?xml version="1.0" standalone="no"?>
<!DOCTYPE svg PUBLIC "-//W3C//DTD SVG 20010904//EN"
 "http://www.w3.org/TR/2001/REC-SVG-20010904/DTD/svg10.dtd">
<svg version="1.0" xmlns="http://www.w3.org/2000/svg"
 width="460.000000pt" height="460.000000pt" viewBox="0 0 460.000000 460.000000"
 preserveAspectRatio="xMidYMid meet">

<g transform="translate(0.000000,460.000000) scale(0.100000,-0.100000)"
fill="#000000" stroke="none">
<path d="M2040 3141 c-226 -41 -474 -137 -644 -250 -21 -14 -46 -30 -55 -36
-9 -5 -18 -12 -21 -15 -3 -3 -28 -23 -57 -43 -77 -56 -105 -81 -231 -202 -117
-113 -251 -269 -252 -294 0 -7 15 -32 33 -55 17 -22 41 -52 52 -66 24 -31 269
-276 310 -310 17 -14 46 -36 65 -50 19 -13 40 -28 45 -32 221 -169 499 -288
777 -332 246 -40 527 -12 778 78 203 72 340 149 555 313 134 103 425 413 425
453 0 37 -270 329 -405 437 -277 223 -557 353 -880 408 -122 20 -370 18 -495
-4z m-245 -313 c-33 -34 -63 -65 -67 -68 -4 -3 -18 -22 -32 -43 -86 -127 -127
-259 -129 -412 -1 -120 19 -206 72 -319 44 -94 52 -106 143 -200 37 -38 66
-71 65 -73 -8 -7 -224 89 -309 137 -170 96 -386 273 -492 403 l-38 47 25 32
c38 50 184 191 262 253 138 111 271 189 440 261 55 23 104 43 110 43 5 1 -17
-27 -50 -61z m1190 -38 c165 -81 318 -191 463 -332 104 -101 145 -154 135
-172 -24 -43 -172 -185 -318 -305 -37 -30 -160 -108 -236 -150 -74 -40 -270
-123 -276 -117 -2 1 28 34 65 72 120 121 178 236 208 410 15 90 15 104 -1 207
-26 171 -90 297 -211 415 -35 34 -64 65 -64 67 0 9 139 -47 235 -95z m-530 45
c93 -28 158 -68 235 -145 116 -117 165 -232 164 -390 -1 -165 -46 -272 -164
-391 -114 -114 -231 -163 -390 -164 -155 0 -275 50 -391 165 -114 113 -164
231 -164 390 0 178 79 336 219 442 79 59 127 80 261 112 35 9 178 -3 230 -19z"/>
<path d="M2265 2600 c-3 -5 -1 -18 5 -29 27 -51 5 -128 -50 -175 -41 -34 -125
-37 -175 -6 l-32 20 -12 -54 c-17 -75 6 -174 54 -235 122 -153 324 -168 458
-34 79 78 108 180 81 287 -9 36 -20 66 -25 66 -5 0 -9 6 -9 14 0 19 -77 94
-119 116 -34 16 -125 40 -156 40 -8 0 -17 -4 -20 -10z"/>
</g>
</svg>
